<?xml version="1.0" standalone="no"?><!DOCTYPE svg PUBLIC "-//W3C//DTD SVG 1.1//EN" "http://www.w3.org/Graphics/SVG/1.1/DTD/svg11.dtd"><svg t="1671005210574" class="icon" viewBox="0 0 1024 1024" version="1.1" xmlns="http://www.w3.org/2000/svg" p-id="1245" xmlns:xlink="http://www.w3.org/1999/xlink" width="200" height="200"><path d="M753.18 856.09H270.35L28.58 442.98 270.35 29.87h482.83l241.77 413.11-241.77 413.11z m-448.43-60h414.02l206.66-353.11L718.77 89.87H304.75L98.1 442.98l206.65 353.11zM963.46 958.84H59.82c-17.26 0-31.25-13.99-31.25-31.25 0-17.26 13.99-31.25 31.25-31.25h903.64c17.26 0 31.25 13.99 31.25 31.25-0.01 17.26-14 31.25-31.25 31.25z" p-id="1246"></path><path d="M668.29 242.14l-47.9 47.9-43.27 43.27-183 183.01-43.57 43.57-39.74 39.74c-12.2 12.2-12.2 31.99 0 44.19s31.99 12.2 44.19 0l39.18-39.18 43.27-43.27 183.01-183.01 43.57-43.57 48.46-48.46c12.2-12.2 12.2-31.99 0-44.19-12.22-12.2-32-12.2-44.2 0zM380.34 489.65c-12.71-33.15-9.94-70.77 8.32-101.97l7.47-12.76c5.12-8.75 11.29-16.69 18.31-23.7 21.9-21.9 51.99-34.75 83.63-34.75h18.43c11.1 0 22 1.59 32.43 4.6l7.98-7.98 38.21-38.21c-24.12-11.9-50.97-18.41-78.61-18.41h-18.43c-63 0-121.9 33.78-153.72 88.15l-7.47 12.76c-31.96 54.6-32.44 122.23-1.51 177.25l38.53-38.53 6.43-6.45zM632.81 401.51c14.3 33.99 12 73.17-6.91 105.48l-7.47 12.76a116.934 116.934 0 0 1-18.31 23.7c-21.9 21.9-51.99 34.75-83.63 34.75h-18.43c-12.44 0-24.64-2-36.2-5.75l-6.67 6.67-39.01 39.01c24.95 12.95 52.98 20.07 81.88 20.07h18.43c47.72 0 93.09-19.37 126.11-52.41a177.265 177.265 0 0 0 27.61-35.74l7.47-12.76c32.48-55.49 32.48-124.44 0-179.93l-0.27-0.46-39.21 39.21-5.39 5.4z" p-id="1247"></path></svg>